# xmcd
#
# Track frame offsets:
#	150
#	21625
#	43113
#	68299
#	99979
#	115327
#	130191
#	152413
#	171674
#	187594
#	207048
#	229695
#	244319
#	257611
#	269055
#	282283
#	292183
#	306550
#	329759
#	346226
#	350971
#	352604
#
# Disc length: 4709 seconds
#
# Revision: 1
# Processed by: cddbd v1.5.1PL0 Copyright (c) Steve Scherf et al.
# Submitted via: audiograbber 1.83.01
#
DISCID=58126316
DTITLE=Various Artist - Свадебный. (2004)
DYEAR=1900
DGENRE=
TTITLE0=Ф. Мендельссон. - Свадебный марш.
TTITLE1=Ричард Вагнер. - Freulich Gefurht Ziehet Dahin. (из оперы Лоэнгрин)
TTITLE2=В.А. Моцарт. - Маленькая ночная серенада.
TTITLE3=Петр Ильич Чайковский. - Вальс цветов из балета Щелкунчик.
TTITLE4=Евгений Дога. - Вальс из к/ф Мой ласковый и нежный зверь.
TTITLE5=Муслим Магомаев. - Свадьба.
TTITLE6=Виа Лейся, песня. - Обручальное кольцо.
TTITLE7=Лариса Долина. - Погода в доме.
TTITLE8=j - Барыня.
TTITLE9=j - Цыганочка.
TTITLE10=j - Сиртаки.
TTITLE11=j - Семь сорок.
TTITLE12=j - Лезгинка.
TTITLE13=Юрий Никулин. - Песня про зайцев.
TTITLE14=Лайма Вайкуле. - Эй, моряк.
TTITLE15=Владимир Кузьмин. - Королева красоты.
TTITLE16=Верка Сердючка. - Все будет хорошо.
TTITLE17=Фристайл. - Ах, какая женщина.
TTITLE18=Балаган лимитед и Филипп Киркоров. - У моей у Любы.
TTITLE19=j - Фанфары 1.
TTITLE20=j - Фанфары 2.
TTITLE21=j - Фанфары 3.
EXTD=
EXTT0=
EXTT1=
EXTT2=
EXTT3=
EXTT4=
EXTT5=
EXTT6=
EXTT7=
EXTT8=
EXTT9=
EXTT10=
EXTT11=
EXTT12=
EXTT13=
EXTT14=
EXTT15=
EXTT16=
EXTT17=
EXTT18=
EXTT19=
EXTT20=
EXTT21=
PLAYORDER=
